trial_5_ID.mot
nRows=10
nColumns=42

name trial_5_ID.mot
datacolumns 42
datarows 10
range 8.1100000000 8.2000000000
endheader
time	pelvis_tilt_moment	pelvis_list_moment	pelvis_rotation_moment	pelvis_tx_force	pelvis_ty_force	pelvis_tz_force	hip_flexion_r_moment	hip_adduction_r_moment	hip_rotation_r_moment	knee_angle_r_moment	knee_vv_r_moment	knee_rot_r_moment	ankle_angle_r_moment	subtalar_angle_r_moment	mtp_angle_r_moment	hip_flexion_l_moment	hip_adduction_l_moment	hip_rotation_l_moment	knee_angle_l_moment	knee_vv_l_moment	knee_rot_l_moment	ankle_angle_l_moment	subtalar_angle_l_moment	mtp_angle_l_moment	lumbar_extension_moment	lumbar_bending_moment	lumbar_rotation_moment	arm_flex_r_moment	arm_add_r_moment	arm_rot_r_moment	elbow_flex_r_moment	pro_sup_r_moment	wrist_flex_r_moment	wrist_dev_r_moment	arm_flex_l_moment	arm_add_l_moment	arm_rot_l_moment	elbow_flex_l_moment	pro_sup_l_moment	wrist_flex_l_moment	wrist_dev_l_moment
        8.1100000000	       10.1028697200	       -2.0256210900	       -3.5083936300	        6.4430991000	       12.8222326100	       14.1221263700	       -4.8388862300	      -44.0575115200	        2.8643866300	       12.1642379000	      -19.3276026100	       -2.1796243100	      -23.4868629300	        8.0619796200	        0.0258082600	        8.6966941000	        2.2739655200	       -1.7248015400	        2.5279752500	       -1.9384019900	       -0.1702972500	        0.7677893700	        0.0151961300	        0.0321922600	       23.0265101100	       -0.2571093400	       -3.0333590300	       -0.8894107700	       -1.2036371600	       -0.0393851600	       -0.0764639200	       -0.0025086900	        0.0224439000	        0.0146698400	        0.3838867700	       -1.9691752600	       -0.0725936500	       -0.3559470500	       -0.0171163600	       -0.0495449300	        0.0031345200	
        8.1200000000	        8.8741245900	       -1.1492525200	       -3.5883206400	        9.6423564400	       11.5052494300	       14.3317299100	       -4.2777188200	      -43.3824976600	        2.7023721400	       10.9766504200	      -18.8237651300	       -2.1235248800	      -25.0804040600	        8.4183195300	        0.0257539700	        8.6101991300	        1.9713585300	       -1.5105277700	        2.1739018400	       -1.6936832500	       -0.1407600400	        0.7938190500	       -0.0128510500	        0.0334731100	       21.1453251800	        0.4262072600	       -3.0749179000	       -0.8669336700	       -1.2022342500	       -0.0423596200	       -0.0673566600	       -0.0032957400	        0.0225116900	        0.0136888500	        0.5117037500	       -1.8826132700	       -0.0716112200	       -0.3216409100	       -0.0183159100	       -0.0515109000	        0.0004195700	
        8.1300000000	        7.4264792500	        0.0407057500	       -3.7449541700	       13.1534827000	        9.6009644700	       13.6288535500	       -3.7814271200	      -42.6618353500	        2.5438542700	        9.7222175500	      -18.3260841500	       -2.0691467200	      -26.6285915200	        8.7674849700	        0.0258193600	        8.5080114200	        1.4971233900	       -1.1967051300	        1.8162139500	       -1.3387355700	       -0.1034751400	        0.8335053700	       -0.0497426500	        0.0352043600	       19.1006041600	        1.0474502600	       -3.0830179300	       -0.8234525100	       -1.1972949600	       -0.0432147600	       -0.0574460200	       -0.0036490200	        0.0222629100	        0.0127605900	        0.6373364200	       -1.7915324100	       -0.0718750000	       -0.2817863000	       -0.0196631100	       -0.0528125300	       -0.0029842100	
        8.1400000000	        5.8019968300	        1.5514353900	       -4.0018337800	       16.3820483500	        7.5039849000	       11.9756237300	       -3.3349281700	      -41.8985211300	        2.3962051900	        8.4357823200	      -17.8431089100	       -2.0133237000	      -28.1065825100	        9.1015318700	        0.0260170000	        8.3226664400	        0.8221210300	       -0.7724223200	        1.4433390600	       -0.8566209900	       -0.0593500100	        0.8808621200	       -0.0946017600	        0.0371297900	       17.0588408100	        1.5851696200	       -3.0975586400	       -0.7647441200	       -1.1910728300	       -0.0415063800	       -0.0478748500	       -0.0034773100	        0.0218021600	        0.0121098900	        0.7546631200	       -1.7023692100	       -0.0726861600	       -0.2398475500	       -0.0209748900	       -0.0535068000	       -0.0067176900	
        8.1500000000	        4.0320570800	        3.3404622100	       -4.3598921900	       18.8148610100	        5.5183922000	        9.4008465600	       -2.9154463200	      -41.1053862400	        2.2636520300	        7.1490753600	      -17.3830171600	       -1.9543483500	      -29.4910876700	        9.4124601000	        0.0263372300	        7.9847071800	       -0.0624030800	       -0.2441656200	        1.0415402200	       -0.2472869900	       -0.0104980800	        0.9310832600	       -0.1457000900	        0.0390794400	       15.1524961400	        2.0137880000	       -3.1578171000	       -0.6970139800	       -1.1855580400	       -0.0371527200	       -0.0394763700	       -0.0027658400	        0.0212458200	        0.0118875600	        0.8599723500	       -1.6213197700	       -0.0732637500	       -0.1989831800	       -0.0220764300	       -0.0537163200	       -0.0104438500	
        8.1600000000	        2.1366255800	        5.3108975500	       -4.7948289000	       20.0795030600	        3.8424404900	        5.9998110700	       -2.4993364800	      -40.3040466100	        2.1467563500	        5.8831674200	      -16.9523621900	       -1.8920639300	      -30.7679700800	        9.6944842200	        0.0267528600	        7.4313457900	       -1.1358916100	        0.3608377500	        0.5953667700	        0.4675490900	        0.0395870600	        0.9806111800	       -0.2002774200	        0.0409757300	       13.4719399200	        2.3040772400	       -3.2958792700	       -0.6261555100	       -1.1812484500	       -0.0303679100	       -0.0324389000	       -0.0015762400	        0.0207319800	        0.0121355800	        0.9521081700	       -1.5537540600	       -0.0728404900	       -0.1617374500	       -0.0228200400	       -0.0536101900	       -0.0138832800	
        8.1700000000	        0.1363318800	        7.3166357100	       -5.2602809200	       19.9657177000	        2.5755411100	        1.9445063600	       -2.0678902100	      -39.5219975600	        2.0424277500	        4.6433480000	      -16.5551445900	       -1.8279326500	      -31.9388047100	        9.9454993700	        0.0272256700	        6.6174810800	       -2.3414755300	        0.9951160700	        0.0895752100	        1.2424120200	        0.0861345800	        1.0269925600	       -0.2545362400	        0.0428221900	       12.0699657100	        2.4275219400	       -3.5315456400	       -0.5573926200	       -1.1769097800	       -0.0215878600	       -0.0263138200	       -0.0000343400	        0.0204065600	        0.0127884400	        1.0317539900	       -1.5035252200	       -0.0707469400	       -0.1298632200	       -0.0230955000	       -0.0533700500	       -0.0168332900	
        8.1800000000	       -1.9323046200	        9.1754714900	       -5.6959652000	       18.4229075700	        1.7431128800	       -2.4977008500	       -1.6111197000	      -38.7894115500	        1.9444669500	        3.4177283800	      -16.1926539100	       -1.7650614400	      -33.0242115500	       10.1675567000	        0.0277131900	        5.5263275500	       -3.5823824300	        1.5956920200	       -0.4881191200	        2.0095020700	        0.1234910900	        1.0685766700	       -0.3038341900	        0.0446783600	       10.9719365800	        2.3637163400	       -3.8697003100	       -0.4951433200	       -1.1703519800	       -0.0114252200	       -0.0203172500	        0.0016907300	        0.0203888200	        0.0137058900	        1.1001273900	       -1.4723505800	       -0.0664732500	       -0.1043204100	       -0.0228302700	       -0.0531467600	       -0.0191649000	
        8.1900000000	       -4.0103031900	       10.6879375000	       -6.0393783400	       15.5486401000	        1.3282903800	       -6.9584831500	       -1.1289957500	      -38.1362674500	        1.8448048800	        2.1798189000	      -15.8641693600	       -1.7078569700	      -34.0632629900	       10.3666489800	        0.0281744700	        4.1749624200	       -4.7248812900	        2.0931887000	       -1.1448084000	        2.6843904300	        0.1458317800	        1.1040766400	       -0.3430983400	        0.0466244000	       10.1841842300	        2.1076612000	       -4.3005543600	       -0.4429227300	       -1.1596712200	       -0.0006434900	       -0.0137400200	        0.0034120300	        0.0207339300	        0.0147214200	        1.1576975900	       -1.4596343500	       -0.0597094300	       -0.0854561600	       -0.0219841900	       -0.0530255700	       -0.0208012100	
        8.2000000000	       -6.0245375300	       11.6598516900	       -6.2391473200	       11.5737405200	        1.2916435800	      -11.0016947800	       -0.6301127300	      -37.5895684000	        1.7351467600	        0.8942804500	      -15.5682924600	       -1.6613802100	      -35.1094171200	       10.5517382200	        0.0285740900	        2.6104958200	       -5.6111455700	        2.4246002700	       -1.8819192800	        3.1766960100	        0.1481920200	        1.1320265200	       -0.3674733700	        0.0487190000	        9.6969627000	        1.6728015600	       -4.8025414200	       -0.4031845500	       -1.1442214100	        0.0098868300	       -0.0062609300	        0.0049512700	        0.0214130300	        0.0156882200	        1.2036007400	       -1.4629536900	       -0.0503719200	       -0.0732761100	       -0.0205460400	       -0.0530172500	       -0.0216922400	
